<svg xmlns="http://www.w3.org/2000/svg" xml:space="preserve" width="1500" height="1500" data-id="lg_rfL82MFnqONEfGM4oS" data-version="1"><path fill="#f0eefe" stroke="transparent" d="M0 0h1500v1500H0z"/><g data-padding="20"><g transform="translate(-578.546 -572.746)scale(1.71004)"><g fill="#340065" stroke="null"><filter id="a" width="156%" height="272%" x="-28%" y="-86%"><feGaussianBlur in="SourceAlpha" stdDeviation="5"/><feOffset dx="2" dy="2" result="oBlur"/><feFlood flood-color="#000" flood-opacity="1"/><feComposite in2="oBlur" operator="in"/><feMerge><feMergeNode/><feMergeNode in="SourceGraphic"/></feMerge></filter><path d="m659.036 1024.695-.71 20.87h-2.19l.36-6.36.26-10.63h-.19l-7.38 14.58h-2.05l-3.46-14.58h-.23l-2.31 10.44-1.37 6.55h-2.09l4.7-20.87h2.77l.65 3.16 2.78 12.1h.22l6.1-12.29 1.37-2.97Zm12.89 6 2.41-.23-1.63 11.55-.13 3.46-2.48.22 1.01-7.3h-.23q-1.59 2.74-2.92 4.47-1.32 1.72-2.75 2.83h-.36q-1.14-.26-1.84-.97-.7-.72-.67-1.83l.03-.43 1.34-8.41.26-3.42 2.41-.2-1.73 10.93-.06.68q-.03.49.16.73.2.25.52.25.95 0 2.68-2.38t3.81-6.79Zm11.18-8.09-2.7 19.41-.17 3.46-2.44.22 2.77-19.7.1-3.16Zm7.15 9.92-1.54 9.42-.06.52q0 .49.23.79.22.29.65.29 1.17 0 2.84-2.61h.29l.68.88q-1.14 1.89-2.05 2.77-.91.89-2.06 1.21-1.3 0-2.03-.72-.74-.71-.74-2.02l.07-.78 1.4-8.42.16-1.33h-2.18l-.16-.17.16-1.46h2.41l.46-3.62 2.25-1.05.19.2-.71 4.47h3.98l.19.26-.16 1.37Zm10.2-2.06-1.63 11.55-.13 3.46-2.48.22 1.7-11.84.13-3.16Zm-.55-6.39q.62 0 .99.36.38.36.38 1.01 0 .69-.39 1.11t-1.05.42q-.65 0-1.02-.39-.38-.39-.38-1.04t.39-1.06 1.08-.41Zm9.16 6.36q1.41.26 2.74.82l-.68 2.21-.39.13q-1.27-1.43-2.61-1.43-.98 0-1.68.7t-.7 1.58q0 .72.49 1.24t1.56 1.31q1.4 1.01 2.14 1.87.73.87.73 2.27 0 1.3-.72 2.38-.71 1.07-1.98 1.69-1.28.62-2.91.62-1.69-.22-3.26-1.1l.62-2.32.36-.16q.65.91 1.47 1.38.81.48 1.66.48 1.11 0 1.83-.72.71-.72.71-1.63 0-.85-.53-1.44-.54-.58-1.65-1.33-1.37-.98-2.09-1.81-.72-.84-.72-2.17 0-1.34.77-2.38.77-1.05 2.06-1.64 1.28-.58 2.78-.55Zm13.93-.03q2.48 1.5 2.48 5.12 0 2.38-.88 4.58t-2.63 3.77q-1.74 1.56-4.19 1.92h-.13l-1.76-.39-.36 2.64-.16 3.56-2.48.23 2.51-17.98.16-3.16 2.39-.23-.92 6.72h.36q2.38-4.17 5.15-6.78Zm-4.73 13.43q1.53 0 2.66-1.04 1.12-1.04 1.73-2.79.6-1.74.6-3.86 0-1.63-.29-2.33-.3-.71-.69-.71t-1.35 1.08-2.19 3.13q-1.22 2.06-2.39 4.83l-.17 1.11Zm17.68-2.83.39.03.78 1.01q-1.04 1.6-2.28 2.51-1.24.92-2.81 1.24h-.39q-2.08-.26-3.05-1.53-.96-1.27-.96-3.78 0-2.87.93-5.16.93-2.28 2.54-3.59 1.62-1.3 3.71-1.36l.26.03q1.4.16 2.13.91.74.75.74 1.99 0 1.96-2.02 3.6-2.03 1.65-6.01 2.89 0 2.06.54 3 .54.95 1.68.95.98 0 1.88-.66.89-.65 1.94-2.08Zm-1.67-8.87q-1.66 0-2.82 1.61-1.15 1.62-1.45 4.32 2.81-.91 4.26-2.07t1.45-2.53q0-1.33-1.44-1.33Zm13.31-1.7 2.09.65.19.36-.65 1.93-.52.09q-.62-.65-1.13-.89-.5-.25-1.06-.25-1.95 0-3.09 2.06-1.14 2.05-1.14 5.61 0 2.02.45 2.88.46.87 1.44.87 1.73 0 3.39-2.94l.36.03.75 1.05q-1.01 1.73-2.11 2.61-1.09.88-2.56 1.3h-.39q-1.89-.32-2.75-1.48-.87-1.16-.87-3.9 0-4.37 1.91-7.17 1.91-2.81 5.69-2.81Zm7.86.03-1.63 11.55-.13 3.46-2.48.22 1.7-11.84.13-3.16Zm-.55-6.39q.62 0 .99.36.38.36.38 1.01 0 .69-.39 1.11-.4.42-1.05.42t-1.03-.39q-.37-.39-.37-1.04t.39-1.06 1.08-.41Zm14.44 6.3.3.19-1.6 11.45-.16 3.46-2.48.22.94-6.68h-.32q-2.38 4.17-5.12 6.78h-.46q-2.48-1.4-2.48-5.12 0-2.35.88-4.56.88-2.22 2.6-3.77 1.71-1.55 4.15-1.94h.17l2.02.75Zm-8.21 12.75q.39 0 1.35-1.08t2.18-3.13q1.23-2.05 2.4-4.83l.03-.19.04-.79-2.03-.71q-1.5 0-2.62 1.02-1.13 1.03-1.71 2.78-.59 1.74-.59 3.86 0 1.63.29 2.35.3.72.66.72Zm17.25-20.52-2.71 19.41-.16 3.46-2.45.22 2.77-19.7.1-3.16Zm6.55 7.86-1.63 11.55-.13 3.46-2.48.22 1.7-11.84.13-3.16Zm-.55-6.39q.62 0 .99.36.38.36.38 1.01 0 .69-.39 1.11t-1.05.42q-.65 0-1.02-.39-.38-.39-.38-1.04t.39-1.06 1.08-.41Zm8.25 8.45-1.53 9.42-.07.52q0 .49.23.79.23.29.65.29 1.18 0 2.84-2.61h.29l.69.88q-1.14 1.89-2.06 2.77-.91.89-2.05 1.21-1.3 0-2.04-.72-.73-.71-.73-2.02l.06-.78 1.41-8.42.16-1.33h-2.19l-.16-.17.16-1.46h2.42l.45-3.62 2.25-1.05.2.2-.72 4.47h3.98l.2.26-.17 1.37Zm16.83-2.06q.78 1.44.78 2.64 0 1.86-1.3 4.18l-4.63 8.19q-1.96 3.45-3.61 4.95-1.64 1.5-3.63 1.5-1.08 0-2.45-.45l.07-2.09.29-.2q1.11.3 2.05.3 1.5 0 2.65-.87 1.14-.86 2.34-2.88l-2.96-15.01 2.41-.26.36 2.61 1.56 9.59h.33l3.2-5.87q1.07-1.86 1.07-3.52 0-1.11-.75-2.15l.1-.3Zm23.48-5.77h2.48l-1.92 14.38-.69 6.49h-2.44l.91-6.29.36-3.2-5.55-.1-5.08.1-.43 3-.65 6.49h-2.48l.95-6.29 1.66-14.58h2.48l-1.27 9.23 5.28.1 5.35-.1Zm11.55 5.68h.26q1.79.29 2.69 1.5.9 1.2.9 3.45 0 3-.85 5.32-.85 2.31-2.46 3.67-1.62 1.35-3.84 1.55l-.29-.04q-1.86-.35-2.76-1.56-.89-1.21-.89-3.56 0-2.93.88-5.23t2.52-3.64q1.65-1.33 3.84-1.46Zm-.43 1.98q-2.21 0-3.39 2.25-1.17 2.26-1.17 6.07 0 1.7.45 2.46.46.77 1.54.77 2.18 0 3.36-2.28 1.17-2.29 1.17-6.13 0-1.67-.46-2.4-.45-.74-1.5-.74Zm12.59-1.92q1.4.26 2.74.82l-.68 2.21-.39.13q-1.28-1.43-2.61-1.43-.98 0-1.68.7t-.7 1.58q0 .72.48 1.24.49.52 1.57 1.31 1.4 1.01 2.14 1.87.73.87.73 2.27 0 1.3-.72 2.38-.71 1.07-1.99 1.69-1.27.62-2.9.62-1.7-.22-3.26-1.1l.62-2.32.36-.16q.65.91 1.47 1.38.81.48 1.66.48 1.11 0 1.82-.72.72-.72.72-1.63 0-.85-.54-1.44-.53-.58-1.64-1.33-1.37-.98-2.09-1.81-.72-.84-.72-2.17 0-1.34.77-2.38.77-1.05 2.05-1.64 1.29-.58 2.79-.55Zm13.93-.03q2.48 1.5 2.48 5.12 0 2.38-.88 4.58t-2.63 3.77q-1.74 1.56-4.19 1.92h-.13l-1.76-.39-.36 2.64-.16 3.56-2.48.23 2.51-17.98.16-3.16 2.38-.23-.91 6.72h.36q2.38-4.17 5.15-6.78Zm-4.73 13.43q1.53 0 2.66-1.04 1.12-1.04 1.73-2.79.6-1.74.6-3.86 0-1.63-.29-2.33-.3-.71-.69-.71t-1.35 1.08-2.19 3.13q-1.22 2.06-2.4 4.83l-.16 1.11Zm13.89-13.37-1.63 11.55-.13 3.46-2.48.22 1.7-11.84.13-3.16Zm-.55-6.39q.62 0 .99.36.38.36.38 1.01 0 .69-.39 1.11t-1.05.42q-.65 0-1.02-.39-.38-.39-.38-1.04t.39-1.06 1.08-.41Zm8.25 8.45-1.53 9.42-.07.52q0 .49.23.79.23.29.65.29 1.18 0 2.84-2.61h.29l.69.88q-1.14 1.89-2.06 2.77-.91.89-2.05 1.21-1.31 0-2.04-.72-.73-.71-.73-2.02l.06-.78 1.4-8.42.17-1.33h-2.19l-.16-.17.16-1.46h2.42l.45-3.62 2.25-1.05.2.2-.72 4.47h3.98l.2.26-.17 1.37Zm16.57-2.15.29.19-1.6 11.45-.16 3.46-2.48.22.95-6.68h-.33q-2.38 4.17-5.12 6.78h-.46q-2.47-1.4-2.47-5.12 0-2.35.88-4.56.88-2.22 2.59-3.77t4.16-1.94h.16l2.02.75Zm-8.22 12.75q.39 0 1.35-1.08t2.19-3.13q1.22-2.05 2.39-4.83l.04-.19.03-.79-2.02-.71q-1.5 0-2.63 1.02-1.12 1.03-1.71 2.78-.59 1.74-.59 3.86 0 1.63.3 2.35.29.72.65.72Zm17.25-20.52-2.71 19.41-.16 3.46-2.44.22 2.77-19.7.1-3.16Z" filter="url(#a)" font-family="Alegreya Sans" font-size="32.614" font-style="italic"/></g><path fill="#340065" stroke="null" d="m706.906 855.715 10.12 8.69q-6.42 12.12-11.48 22.67t-9.55 20.59q-4.49 10.05-8.76 20.67-4.28 10.62-8.98 22.74h-7.7l1.28-15.11q9.7-17.53 18.03-37.42 8.34-19.88 17.04-42.83Zm-73.55 19.24 4.99-9.12q-.72 7.13-1.14 16.39-.43 9.27-.57 19.53-.15 10.26-.08 20.45.08 10.2.36 19.18l15.25 2.99-1.99 5.42q-5.28-.29-9.55-.36-4.28-.07-9.84-.07-6.7 0-11.19.07t-8.19.36l-1.86-5.42 14.26-2.99q1.14-12.26 1.92-25.45.79-13.18 1.14-26.15.36-12.98.36-24.24l-14.11-3.99 2.28-5.84q4.56.14 8.48.28 3.92.15 8.76.15 4.28 0 8.41-.15 4.14-.14 7.42-.28 4.7 10.55 8.83 19.67 4.14 9.12 8.27 17.67 4.13 8.56 8.7 17.18 4.56 8.62 10.26 18.32l-6.27 22.52h-7.7q-5.27-11.55-9.34-20.03-4.06-8.48-7.41-15.25t-6.48-12.9q-3.14-6.13-6.49-12.83t-7.48-15.11Zm106.05-19.24 2.28 5.84-13.26 3.99q.43 9.7.71 17.39.29 7.7.57 14.33.29 6.63.57 13.18.29 6.56.65 14.04.35 7.49.92 16.9l13.26 2.99-2.28 5.42q-3.71-.29-8.41-.36-4.71-.07-13.12-.07-7.69 0-12.61.14t-9.19.29l-2-5.42 13.26-2.99q-.29-15.4-.79-28.01-.5-12.62-1.07-24.66-.57-12.05-1.56-25.59l-.43-7.41q3.13.14 6.98.28 3.85.15 7.84.15 4.56 0 9.27-.15 4.7-.14 8.41-.28Zm50.03 25.51 12.11-26.08q8.41 23.52 18.04 45.4 9.62 21.88 17.74 40.84l11.12 2.99-1.85 5.42q-4.42-.29-9.91-.36t-9.91-.07q-2.56 0-6.77.07l-8.33.14q-4.14.07-6.7.22l-2-5.42 11.12-2.99q-4.28-10.98-10.76-26.73-6.49-15.75-13.9-33.43Zm4.85-26.08h7.26q-.99 2.56-1.92 4.7t-1.92 5.13q-1 3-2.14 8.13-2.71 7.41-6.06 16.6-3.35 9.2-6.84 18.68t-6.34 18.1q-2.86 8.62-4.42 14.9l10.54 2.99-1.85 5.42q-9.12-.43-16.82-.43-7.13 0-14.82.43l-1.86-5.42 10.55-2.99q2.71-4.99 6.35-12.62 3.63-7.63 7.69-16.89 4.07-9.27 8.2-19.24 4.13-9.98 7.84-19.6 3.7-9.62 6.56-17.89Zm20.52 62.57v11.12q-6.13-.71-11.62-.85-5.48-.15-10.05-.15-4.84 0-9.47.15-4.64.14-10.2.85v-10.97q5.56.71 10.2.99 4.63.29 9.47.29 4.57 0 10.05-.29 5.49-.28 11.62-1.14Zm80.68-62 1.99 5.56-8.69 2.28q4.42 8.84 11.33 21.45 6.91 12.62 15.61 27.15 8.69 14.54 18.39 29.23l11.12 2.99-2.14 5.42q-4.28-.15-8.91-.29t-9.77-.14q-6.98 0-12.82.07-5.85.07-9.55.36l-2.43-5.42 9.55-2.99q-6.7-12.69-14.32-25.95-7.63-13.25-15.54-26.37-7.91-13.11-15.61-25.23l-11.54-2.56 1.99-5.56q4.28.28 10.27.36 5.98.07 10.54.07 3 0 6.77-.07 3.78-.08 7.49-.22 3.7-.14 6.27-.14Zm-.71 43.05 5.56 7.69q-7.13 10.41-12.62 19.1-5.49 8.7-9.05 15.83l11.69 2.99-2 5.42q-4.56-.29-8.98-.36t-10.12-.07q-4.56 0-8.19.07-3.64.07-7.49.36l-1.99-5.42 11.97-2.99q7.13-8.84 15.18-19.6 8.05-10.77 16.04-23.02Zm7.55 6.7-5.27-8.13q7.84-11.12 12.9-19.81 5.06-8.7 7.05-13.54l-10.83-2.71 2-5.56q4.56.14 8.33.28 3.78.15 9.06.15 3.84 0 7.34-.15 3.49-.14 7.34-.28l1.99 5.56-10.55 2.99q-6.7 8.41-13.82 18.39-7.13 9.98-15.54 22.81Z" font-family="Alkalami" font-size="142.541"/><circle cx="88.152" cy="87.245" r="6.83" fill="#d64ae1" transform="matrix(4.3 0 0 4.3 366.417 149.321)"/><circle cx="88.152" cy="87.245" r="6.22" fill="#d64ae1" transform="matrix(4.3 0 0 4.3 460.931 207.113)"/><path fill="#d64ae1" d="M984.94 792.41q2.408 3.998 2.408 8.341 0 6.45-4.558 10.793a15.48 15.48 0 0 1-10.965 4.343 14.62 14.62 0 0 1-13.588-7.568l-35.432-60.974h-74.906a26.79 26.79 0 0 1-27.133-24.295l-4.816-80.926a25.8 25.8 0 0 1 6.75-18.748 25.8 25.8 0 0 1 17.545-8.772 25.8 25.8 0 0 1 18.748 6.794 25.8 25.8 0 0 1 8.772 17.544l1.59 23.091h44.033q11.954 0 11.954 11.954 0 12.384-11.954 12.384H870.99l.43 19.91h55.34q8.386.042 12.772 7.567ZM787.01 640.361h-44.805v-58.695c0-4.902-1.72-11.782-6.235-17.157a30.96 30.96 0 0 0-19.952-13.33 32.25 32.25 0 0 0-31.046 14.32l-34.185 63.854c-1.634 2.752-4.3 7.998-5.805 12.255-.731 1.333-2.838 7.31-4.042 13.674l-12.47 71.853-52.202 21.93c-17.63 7.654-11.094 39.388 16.555 31.218l57.276-24.38q3.01-1.334 5.246-3.613l.688-.602a17.2 17.2 0 0 0 3.225-5.16l.344-.473 12.04-38.098 33.024 35.475-11.18 75.121c-.688 25.198 31.304 23.994 34.357.215l10.922-73.315a34.4 34.4 0 0 0-4.902-19.78l-3.57-6.32-33.11-45.58 17.846-33.283v13.46a13.63 13.63 0 0 0 13.588 13.587h58.394a13.631 13.631 0 1 0 0-27.219"/><path fill="#d64ae1" d="M835.6 834.334c-41.28 0-76.54-31.82-79.98-73.702a80.41 80.41 0 0 1 35.089-73.272 9.249 9.249 0 1 1 10.32 15.351 61.92 61.92 0 0 0-27.004 56.33 61.705 61.705 0 0 0 66.779 56.545 61.92 61.92 0 0 0 54.997-47.128 9.262 9.262 0 0 1 18.017 4.3 80.24 80.24 0 0 1-78.217 61.533"/></g><path fill="transparent" stroke="transparent" stroke-width="1.795" d="M372.083 250h755.834v1000H372.083z"/></g></svg>